# AST/ASF file generated using VICON BodyLanguage
# -----------------------------------------------
:version 1.10
:name VICON
:units
  mass 1.0
  length 0.45
  angle deg
:documentation
   .ast/.asf automatically generated from VICON data using
   VICON BodyBuilder and BodyLanguage model FoxedUp or BRILLIANT.MOD
:root
   order TX TY TZ RX RY RZ
   axis XYZ
   position 0 0 0  
   orientation 0 -0 0 
:bonedata
  begin
     id 1 
     name lhipjoint
     direction 0.432694 -0.693742 0.575759 
     length 2.19277 
     axis 0 -0 0  XYZ
  end
  begin
     id 2 
     name lfemur
     direction 0.34202 -0.939693 0  
     length 6.69022  
     axis 0 -0 20  XYZ
    dof rx ry rz
    limits (-160.0 20.0)
           (-70.0 70.0)
           (-60.0 70.0)
  end
  begin
     id 3 
     name ltibia
     direction 0.34202 -0.939693 0   
     length 6.50337   
     axis 0 -0 20   XYZ
    dof rx
    limits (-10.0 170.0)
  end
  begin
     id 4 
     name lfoot
     direction 0.158999 -0.435969 0.885805   
     length 2.70564   
     axis -90 -1.13533e-015 20   XYZ
    dof rx rz
    limits (-45.0 90.0)
           (-70.0 20.0)
  end
  begin
     id 5 
     name ltoes
     direction -0.00592919 0.00964381 0.999936   
     length 1.29929   
     axis -90 -1.13533e-015 20   XYZ
    dof rx
    limits (-90.0 20.0)
  end
  begin
     id 6 
     name rhipjoint
     direction -0.414359 -0.700339 0.581234   
     length 2.17212  
     axis 0 -0 0  XYZ 
  end
  begin
     id 7 
     name rfemur
     direction -0.34202 -0.939693 0   
     length 7.17659   
     axis 0 -0 -20   XYZ
    dof rx ry rz
    limits (-160.0 20.0)
           (-70.0 70.0)
           (-70.0 60.0)
  end
  begin
     id 8 
     name rtibia
     direction -0.34202 -0.939693 0   
     length 6.36669   
     axis 0 -0 -20   XYZ
    dof rx
    limits (-10.0 170.0)
 end
 begin
     id 9 
     name rfoot
     direction -0.137064 -0.37658 0.916188   
     length 2.22351  
     axis -90 1.13533e-015 -20   XYZ
    dof rx rz
    limits (-45.0 90.0)
           (-20.0 70.0)
  end
  begin
     id 10 
     name rtoes
     direction -0.000784077 -0.00289101 0.999996   
     length 1.09522   
     axis -90 1.13533e-015 -20   XYZ
    dof rx
    limits (-90.0 20.0)
  end
  begin
     id 11 
     name lowerback
     direction -0.0176242 0.984912 -0.172157   
     length 1.65301   
     axis 0 -0 0   XYZ
    dof rx ry rz
    limits (-20.0 45.0)
           (-30.0 30.0)
           (-30.0 30.0)
  end
  begin
     id 12 
     name upperback
     direction -0.00218128 0.998776 -0.0494072   
     length 1.67776   
     axis 0 -0 0   XYZ
    dof rx ry rz
    limits (-20.0 45.0)
           (-30.0 30.0)
           (-30.0 30.0)
  end
  begin
     id 13 
     name thorax
     direction 0.00544186 0.999658 0.0255711   
     length 1.72293   
     axis 0 -0 0   XYZ
    dof rx ry rz
    limits (-20.0 45.0)
           (-30.0 30.0)
           (-30.0 30.0)
  end
  begin
     id 14 
     name lowerneck
     direction -0.105325 0.983841 0.144785   
     length 2.14226   
     axis 0 -0 0   XYZ
    dof rx ry rz
    limits (-20.0 45.0)
           (-30.0 30.0)
           (-30.0 30.0)
  end
  begin
     id 15 
     name upperneck
     direction 0.0547957 0.988053 -0.144041   
     length 2.17508   
     axis 0 -0 0   XYZ
    dof rx ry rz
    limits (-20.0 45.0)
           (-30.0 30.0)
           (-30.0 30.0)
  end
  begin
     id 16
     name head
     direction 0.0247488 0.997534 -0.0656813  
     length 2.20048  
     axis 0 -0 0   XYZ
    dof rx ry rz
    limits (-20.0 45.0)
           (-30.0 30.0)
           (-30.0 30.0)
  end
  begin
     id 17 
     name lclavicle
     direction 0.820559 0.567247 -0.0701026  
     length 4.09615  
     axis 0 -0 0   XYZ
    dof ry rz
    limits (-20.0 10.0)
           (0.0 20.0)
  end
  begin
     id 18 
     name lhumerus
     direction 0.999977 -0.0067566 -9.96392e-005   
     length 4.59333   
     axis -180 -30 -90   XYZ
    dof rx ry rz
    limits (-60.0 90.0)
           (-90.0 90.0)
           (-90.0 90.0)
  end
  begin
     id 19
     name lradius
     direction 1 -4.48982e-011 -2.53425e-027   
     length 2.81151   
     axis -180 -30 -90   XYZ
    dof rx
    limits (-10.0 170.0)
  end
  begin
     id 20
     name lwrist
     direction 1 -4.48939e-011 -7.39254e-028   
     length 1.40576   
     axis 2.56395e-016 90 90   XYZ
    dof ry
    limits (-180.0 0.0)
 end
  begin
     id 21 
     name lhand
     direction 1 -4.48939e-011 -1.47851e-027   
     length 0.895651   
     axis 9.43423e-016 90 90   XYZ
    dof rx rz
    limits (-90.0 90.0)
           (-45.0 45.0)
  end
  begin
     id 22 
     name lfingers
     direction 1 -4.48978e-011 -2.95702e-027   
     length 0.722097   
     axis 1.88685e-015 90 90   XYZ
    dof rx
    limits (0.0 90.0)
  end
  begin
     id 23
     name lthumb
     direction 0.707107 -6.34931e-011 0.707107   
     length 1.03679   
     axis -90 45 -9.86935e-015   XYZ
    dof rx rz
    limits (-45.0 45.0)
           (-45.0 45.0)
  end
  begin
     id 24 
     name rclavicle
     direction -0.831414 0.553102 -0.0531864   
     length 4.24872  
     axis 0 -0 0   XYZ 
    dof ry rz
    limits (-10.0 20.0)
           (-20.0 0.0)
  end
  begin
     id 25 
     name rhumerus
     direction -0.999916 -0.000939607 0.0129331  
     length 4.74834   
     axis -180 30 90   XYZ
    dof rx ry rz
    limits (-90.0 60.0)
           (-90.0 90.0)
           (-90.0 90.0)
  end
  begin
     id 26 
     name rradius
     direction -1 -4.48956e-011 -1.31752e-027   
     length 2.79907   
     axis -180 30 90   XYZ
    dof rx
    limits (-10.0 170.0)
  end
  begin
     id 27 
     name rwrist
     direction -1 -4.4897e-011 -7.39254e-028   
     length 1.39954   
     axis 2.56395e-016 -90 -90   XYZ
    dof ry
    limits (-180.0 0.0)
  end
  begin
     id 28
     name rhand
     direction -0.999997 -0.00250697 0.000800838   
     length 0.953304   
     axis 9.43423e-016 -90 -90   XYZ
    dof rx rz
    limits (-90.0 90.0)
           (-45.0 45.0)
  end
  begin
     id 29
     name rfingers
     direction -1 -4.48954e-011 -2.95702e-027   
     length 0.763342   
     axis 1.88685e-015 -90 -90   XYZ
    dof rx
    limits (0.0 90.0)
  end
  begin
     id 30
     name rthumb
     direction -0.709701 -0.00217037 0.7045   
     length 1.10115   
     axis -90 -45 9.86935e-015   XYZ
    dof rx rz
    limits (-45.0 45.0)
           (-45.0 45.0)
  end
:hierarchy
  begin
    root lhipjoint rhipjoint lowerback
    lhipjoint lfemur
    lfemur ltibia
    ltibia lfoot
    lfoot ltoes
    rhipjoint rfemur
    rfemur rtibia
    rtibia rfoot
    rfoot rtoes
    lowerback upperback
    upperback thorax
    thorax lowerneck lclavicle rclavicle
    lowerneck upperneck
    upperneck head
    lclavicle lhumerus
    lhumerus lradius
    lradius lwrist
    lwrist lhand lthumb
    lhand lfingers
    rclavicle rhumerus
    rhumerus rradius
    rradius rwrist
    rwrist rhand rthumb
    rhand rfingers
  end

#!OML:ASF G:\ViconDB\ViconDB\414\test\team2\shane.ASF
:FULLY-SPECIFIED
:DEGREES
51
root 6.718 15.7936 -2.80225 2.15396 6.40398 -3.34917
lowerback 14.1863 0.527072 -1.90999
upperback 7.2824 0.49233 0.491745
thorax -0.299148 0.196773 1.51969
lowerneck -17.0408 -6.29438 -9.91512
upperneck 8.99946 -8.46659 16.0854
head 6.71383 -3.23816 5.92021
rclavicle 2.56432e-014 -2.3059e-014
rhumerus -51.1777 30.3853 -98.856
rradius 42.965
rwrist -320.584
rhand -38.2351 -8.08669
rfingers 7.12502
rthumb -11.266 -37.7641
lclavicle 2.56432e-014 -2.3059e-014
lhumerus -31.2912 -21.7076 101.502
lradius 62.0919
lwrist -27.3887
lhand -52.7404 3.98019
lfingers 7.12502
lthumb -25.2171 32.334
rfemur -4.24353 -15.7659 12.4701
rtibia 89.9832
rfoot -5.63006 -2.68999
rtoes -8.06042
lfemur -24.7383 8.70436 -17.5681
ltibia 55.1337
lfoot -35.2377 -8.60503
ltoes -4.25367
52
root 6.74636 15.7632 -2.30688 1.51682 6.73097 -3.71803
lowerback 14.2832 0.218809 -1.63648
upperback 7.33259 0.124185 0.688125
thorax -0.283264 0.0163018 1.62236
lowerneck -17.187 -6.23977 -10.0839
upperneck 9.06988 -8.32981 15.9538
head 6.74094 -3.18041 5.92151
rclavicle -4.96962e-015 -1.86858e-014
rhumerus -51.8266 27.6985 -97.3766
rradius 40.4444
rwrist -315.598
rhand -39.2139 -9.97064
rfingers 7.12502
rthumb -12.2099 -39.5943
lclavicle -4.96962e-015 -1.86858e-014
lhumerus -29.1616 -23.1083 101.473
lradius 63.6146
lwrist -28.6371
lhand -52.7721 4.49442
lfingers 7.12502
lthumb -25.2474 32.844
rfemur -7.25176 -16.3161 13.1504
rtibia 92.2606
rfoot -7.05226 -1.96618
rtoes -8.32217
lfemur -21.7059 7.97247 -16.734
ltibia 54.7166
lfoot -36.8274 -7.49334
ltoes -5.53991
53
root 6.76918 15.7452 -1.8159 0.805281 7.49959 -4.40206
lowerback 14.4931 -0.299569 -1.05974
upperback 7.32824 -0.478496 1.04139
thorax -0.377346 -0.274567 1.75289
lowerneck -17.1593 -6.08009 -10.1214
upperneck 9.08327 -8.0442 15.5591
head 6.67959 -3.07541 5.83172
rclavicle 3.55825e-014 -1.31198e-014
rhumerus -52.8058 25.5516 -96.2402
rradius 39.3888
rwrist -316.123
rhand -38.6164 -9.14581
rfingers 7.12502
rthumb -11.6338 -38.8028
lclavicle 3.55825e-014 -1.31198e-014
lhumerus -27.5699 -24.123 101.613
lradius 65.6694
lwrist -28.9178
lhand -52.5323 3.91511
lfingers 7.12502
lthumb -25.0177 32.2969
rfemur -10.0187 -17.2363 14.2506
rtibia 93.8235
rfoot -8.6362 -1.40147
rtoes -8.32906
lfemur -18.5104 6.96403 -15.5982
ltibia 53.8315
lfoot -38.1704 -6.59119
ltoes -5.99234
54
root 6.80179 15.7383 -1.31305 -0.0588228 7.57798 -5.23101
lowerback 14.5156 -0.742609 -0.256013
upperback 7.38647 -0.955598 1.30737
thorax -0.318952 -0.498046 1.64545
lowerneck -17.0132 -5.81706 -10.3092
upperneck 9.23497 -7.65446 15.4705
head 6.65122 -2.90458 5.88768
rclavicle -1.98785e-014 -7.55382e-015
rhumerus -54.2787 24.2353 -95.8154
rradius 39.2553
rwrist -318.1
rhand -38.4563 -9.36145
rfingers 7.12502
rthumb -11.4794 -39.0271
lclavicle -1.98785e-014 -7.55382e-015
lhumerus -26.3817 -24.9804 101.597
lradius 68.1479
lwrist -28.253
lhand -52.6867 4.22261
lfingers 7.12502
lthumb -25.1656 32.5837
rfemur -12.6661 -17.3398 15.6578
rtibia 94.5862
rfoot -10.1619 -0.979143
rtoes -9.29392
lfemur -14.7414 6.74724 -14.2673
ltibia 52.3518
lfoot -39.3926 -5.90407
ltoes -7.11744
55
root 6.79685 15.7526 -0.819836 -0.335244 8.45562 -5.35593
lowerback 14.5722 -1.31071 -0.878858
upperback 7.11595 -1.76882 1.72102
thorax -0.572903 -0.923471 2.55173
lowerneck -16.933 -5.52381 -10.6028
upperneck 9.60171 -7.20219 15.2804
head 6.69118 -2.7082 5.93694
rclavicle 1.78906e-015 -2.62396e-014
rhumerus -56.0558 23.444 -95.318
rradius 39.7999
rwrist -319.939
rhand -37.9099 -9.77404
rfingers 7.12502
rthumb -10.9524 -39.4684
lclavicle 1.78906e-015 -2.62396e-014
lhumerus -25.6565 -25.4139 101.592
lradius 70.9071
lwrist -27.3839
lhand -52.6993 4.4081
lfingers 7.12502
lthumb -25.1777 32.7675
rfemur -15.8099 -18.1921 16.7787
rtibia 94.8652
rfoot -11.5424 -0.838213
rtoes -8.07158
lfemur -11.5089 5.95364 -13.5324
ltibia 50.3042
lfoot -40.1585 -6.00258
ltoes -7.96747
56
root 6.85806 15.7785 -0.269264 -1.57254 6.8298 -6.08214
lowerback 14.6584 -1.24035 -0.0968012
upperback 7.26332 -1.58012 1.91803
thorax -0.489411 -0.818104 2.28913
lowerneck -16.949 -5.23782 -10.8438
upperneck 10.2162 -6.77785 15.0128
head 6.82417 -2.52183 5.95039
rclavicle 2.80286e-014 2.78299e-015
rhumerus -58.0143 22.793 -95.1172
rradius 40.8698
rwrist -322.844
rhand -37.6765 -9.82827
rfingers 7.12502
rthumb -10.7272 -39.5344
lclavicle 2.80286e-014 2.78299e-015
lhumerus -25.2204 -25.9019 101.6
lradius 73.5143
lwrist -26.0979
lhand -53.0764 4.30109
lfingers 7.12502
lthumb -25.5389 32.6092
rfemur -17.7548 -16.2843 18.0456
rtibia 94.2759
rfoot -12.9828 -0.357314
rtoes -7.47248
lfemur -6.34721 6.834 -12.3756
ltibia 47.7541
lfoot -40.7389 -5.35437
ltoes -9.25885
57
root 6.8738 15.8193 0.248243 -1.95244 6.85733 -6.03161
lowerback 14.8044 -1.5466 -0.606452
upperback 6.94688 -2.03803 2.21999
thorax -0.849937 -1.05974 2.97135
lowerneck -16.9745 -4.96199 -11.22
upperneck 10.9511 -6.35137 14.798
head 7.00407 -2.33666 6.00819
rclavicle 2.26615e-014 -3.33958e-014
rhumerus -60.0551 22.2642 -94.8268
rradius 41.9099
rwrist -323.674
rhand -38.2034 -11.3118
rfingers 7.12502
rthumb -11.2355 -40.991
lclavicle 2.26615e-014 -3.33958e-014
lhumerus -25.0661 -26.0254 101.522
lradius 76.1115
lwrist -25.4524
lhand -52.9716 4.73511
lfingers 7.12502
lthumb -25.4386 33.0576
rfemur -20.4743 -16.1709 18.9166
rtibia 93.2991
rfoot -14.2482 -0.0923913
rtoes -8.03726
lfemur -2.3702 6.27925 -12.0974
ltibia 44.7779
lfoot -40.5302 -5.0188
ltoes -11.3645
58
root 6.86935 15.8874 0.729485 -1.62462 8.49484 -5.66946
lowerback 15.0953 -2.31447 -1.38785
upperback 6.25885 -3.13248 2.5246
thorax -1.60307 -1.6071 3.93129
lowerneck -17.2344 -4.62348 -11.0931
upperneck 11.8953 -5.87976 14.1375
head 7.25372 -2.13543 5.83576
rclavicle 2.26615e-014 -3.33958e-014
rhumerus -60.0551 22.2642 -94.8268
rradius 41.9099
rwrist -323.674
rhand -38.2034 -11.3118
rfingers 7.12502
rthumb -11.2355 -40.991
lclavicle 3.79679e-014 1.31198e-014
lhumerus -25.0214 -26.2216 101.418
lradius 78.4618
lwrist -24.7188
lhand -52.9123 4.96337
lfingers 7.12502
lthumb -25.3817 33.2939
rfemur -23.931 -17.3827 19.6298
rtibia 91.8245
rfoot -15.2461 0.107093
rtoes -7.93794
lfemur 0.342156 4.46497 -12.2524
ltibia 41.5005
lfoot -39.24 -5.39875
ltoes -13.9106
59
root 6.88715 15.9718 1.25562 -1.77221 8.98752 -5.67452
lowerback 15.0225 -2.76144 -1.48079
upperback 5.91882 -3.72423 2.7443
thorax -1.85435 -1.89815 4.31485
lowerneck -17.4993 -4.31598 -10.8811
upperneck 12.7955 -5.45071 13.437
head 7.49941 -1.95948 5.62962
rclavicle 2.26615e-014 -3.33958e-014
rhumerus -60.0551 22.2642 -94.8268
rradius 41.9099
rwrist -323.674
rhand -38.2034 -11.3118
rfingers 7.12502
rthumb -11.2355 -40.991
lclavicle -1.36167e-014 1.39149e-015
lhumerus -25.057 -26.4164 101.162
lradius 80.4116
lwrist -24.5471
lhand -53.0199 5.29629
lfingers 7.12502
lthumb -25.4848 33.6122
rfemur -26.3971 -17.3057 20.6287
rtibia 89.6149
rfoot -16.2498 -0.0171248
rtoes -8.47429
lfemur 4.02192 3.42144 -11.9559
ltibia 37.9631
lfoot -37.5549 -5.69136
ltoes -16.4999
